<svg xmlns="http://www.w3.org/2000/svg" xml:space="preserve" width="2000" height="1500" viewBox="0 0 2000 1500" data-version="1" data-id="lg_MfkNfDQKfbV97M0s4c" x="0" y="0"><rect width="2000" height="1500" id="background" stroke="transparent" fill="#1d366f"></rect><g id="outer-wrapper" data-padding="20" transform="matrix(2.0161290322580645,0,0,2.0161290322580645,-1016.1290322580644,-762.0967741935483)"><g id="inner-wrapper" transform="matrix(0.948849104859335,0,0,0.948849104859335,10,14.271099744245532)"><rect width="391.009" height="557.865" x="447.3647722371968" y="97.02833557951476" fill="none" rx="0" ry="0" transform="translate(400.5 399.43)"></rect><path fill="#fff" d="M1126.3087722371968 721.1503355795148Q1164.328772237197 732.0103355795148 1186.0487722371968 757.6803355795148T1207.7687722371968 816.9203355795148Q1207.7687722371968 848.0303355795149 1182.8387722371967 875.4303355795148T1120.638772237197 919.1203355795149Q1083.3587722371967 935.4103355795148 1049.7887722371968 935.4103355795148Q1025.108772237197 935.4103355795148 1001.4087722371969 932.9403355795148Q961.9187722371969 930.4703355795148 940.1887722371969 930.4703355795148H877.4987722371968V915.1703355795148L923.8987722371968 878.6403355795148V578.4703355795148L872.5587722371968 561.6903355795148L882.4287722371969 541.9403355795148H939.6987722371969Q984.6287722371968 541.9403355795148 1028.0687722371968 538.9803355795148Q1061.638772237197 537.0103355795148 1077.4387722371969 537.0103355795148Q1110.5087722371968 537.0103355795148 1135.6887722371969 549.8403355795149Q1160.868772237197 562.6803355795148 1174.4487722371969 584.6503355795148Q1188.018772237197 606.6103355795149 1188.018772237197 633.7703355795148Q1188.018772237197 658.4503355795148 1170.9887722371968 680.9103355795148Q1153.958772237197 703.3803355795148 1126.308772237197 720.1603355795148ZM1121.3787722371967 658.4503355795148Q1121.3787722371967 619.4503355795148 1100.6387722371967 594.7703355795148Q1079.9087722371967 570.0803355795149 1038.9287722371969 570.0803355795149Q1009.3087722371968 570.0803355795149 985.6087722371968 586.8703355795149V717.6903355795148H1056.2087722371969Q1086.8187722371968 717.6903355795148 1104.098772237197 702.1403355795148T1121.3787722371967 657.9603355795148ZM1063.6087722371967 899.3703355795149Q1099.158772237197 899.3703355795149 1120.138772237197 881.6003355795149Q1141.118772237197 863.8203355795149 1141.118772237197 833.7103355795148Q1141.118772237197 795.2003355795148 1118.658772237197 771.5103355795148Q1096.1987722371969 747.8103355795149 1051.7687722371968 746.3303355795149Q1048.3087722371968 746.8203355795149 1042.388772237197 746.8203355795149H985.6087722371968V886.5303355795149Q1018.6887722371968 899.8603355795149 1063.6087722371967 899.8603355795149Z "></path></g><rect width="391" height="558" x="804.5" y="471" id="space-saver" fill="transparent" stroke="transparent"></rect></g></svg>